<?xml version="1.0" standalone="no"?>
<!DOCTYPE svg PUBLIC "-//W3C//DTD SVG 20010904//EN"
 "http://www.w3.org/TR/2001/REC-SVG-20010904/DTD/svg10.dtd">
<svg version="1.0" xmlns="http://www.w3.org/2000/svg"
 width="300.000000pt" height="296.000000pt" viewBox="0 0 300.000000 296.000000"
 preserveAspectRatio="xMidYMid meet">
<metadata>
Created by potrace 1.10, written by Peter Selinger 2001-2011
</metadata>
<g transform="translate(0.000000,296.000000) scale(0.100000,-0.100000)"
fill="#000000" stroke="none">
<path d="M999 2352 l-514 -297 -2 -595 -2 -595 511 -294 c282 -162 517 -294
522 -294 6 0 239 132 518 293 l508 293 0 597 0 597 -159 92 -160 91 -118 -68
c-65 -38 -135 -78 -156 -89 l-38 -19 162 -92 c89 -51 164 -90 168 -87 10 11
-40 47 -147 109 -56 32 -102 62 -102 67 0 10 46 40 154 99 l79 43 46 -25 c105
-58 236 -132 241 -135 3 -3 -6 -13 -20 -23 -24 -19 -24 -19 -2 -13 l22 5 0
-559 c0 -521 -1 -561 -17 -575 -10 -9 -62 -41 -115 -72 -54 -31 -142 -81 -195
-113 -54 -31 -133 -76 -177 -100 -43 -24 -90 -52 -105 -62 -58 -40 -370 -211
-384 -211 -16 0 -68 20 -77 30 -4 4 -217 127 -550 318 -19 11 -62 35 -95 54
-33 19 -105 61 -160 92 -55 32 -104 61 -109 66 -9 9 -15 989 -7 1087 3 40 5
44 25 39 19 -5 19 -4 -4 14 -14 10 -23 20 -20 22 9 7 284 163 295 167 5 2 21
12 35 21 22 15 339 200 460 268 25 14 79 45 121 69 52 29 83 41 95 36 32 -11
224 -126 224 -133 0 -4 -24 -20 -52 -35 -29 -16 -109 -62 -177 -102 -67 -40
-125 -73 -128 -73 -2 0 -24 -13 -48 -30 -24 -16 -47 -30 -52 -30 -5 0 -24 -11
-43 -23 -19 -13 -60 -38 -92 -55 -31 -17 -94 -53 -140 -80 -45 -27 -116 -68
-155 -91 -40 -23 -73 -48 -73 -56 0 -18 -5 -18 -33 -3 -21 10 -21 10 -7 -7 13
-15 15 -82 18 -428 2 -235 7 -418 13 -428 5 -10 62 -48 127 -85 64 -36 131
-75 149 -85 40 -23 103 -60 128 -77 11 -6 29 -16 40 -21 11 -5 74 -41 140 -80
123 -73 161 -84 200 -57 11 7 47 28 80 46 98 55 130 72 232 131 54 32 114 66
133 77 19 11 65 38 102 61 37 22 71 41 76 41 4 0 23 13 42 29 l35 29 1 417 c0
462 -5 418 60 463 11 6 -5 0 -33 -14 l-53 -26 0 -417 0 -416 -346 -200 c-190
-110 -354 -204 -364 -209 -15 -7 -98 37 -379 199 l-361 208 0 418 0 418 33 17
c17 10 235 134 482 277 248 143 465 267 483 275 17 9 32 18 32 21 -1 3 -47 32
-103 63 -56 32 -125 71 -153 87 l-50 29 -515 -296z"/>
<path d="M830 1845 c0 -8 42 -44 52 -45 7 0 64 -33 212 -122 27 -16 55 -28 63
-26 8 2 -48 39 -124 83 -76 43 -153 88 -170 98 -18 10 -33 16 -33 12z"/>
<path d="M2027 1753 c-81 -47 -146 -88 -143 -90 2 -3 66 31 142 76 76 44 143
82 148 84 6 3 9 7 6 10 -3 3 -72 -33 -153 -80z"/>
<path d="M1348 1737 l-158 -92 0 -185 0 -185 157 -90 c86 -49 162 -90 168 -90
5 0 81 41 167 90 l158 90 0 185 0 185 -158 90 c-86 50 -161 91 -167 92 -5 1
-81 -39 -167 -90z m220 27 c128 -72 199 -115 219 -133 20 -19 22 -30 22 -153
1 -140 -5 -165 -35 -154 -11 3 -7 -3 9 -15 l27 -21 -137 -79 c-76 -43 -148
-79 -161 -79 -12 0 -82 34 -153 75 -72 41 -135 75 -141 75 -6 0 0 9 13 20 20
16 21 19 7 20 -16 0 -18 14 -18 145 0 164 0 164 86 211 22 12 75 42 119 67 44
26 84 47 88 47 5 0 29 -12 55 -26z"/>
</g>
</svg>
