<?xml version="1.0" standalone="no"?>
<!DOCTYPE svg PUBLIC "-//W3C//DTD SVG 20010904//EN"
 "http://www.w3.org/TR/2001/REC-SVG-20010904/DTD/svg10.dtd">
<svg version="1.0" xmlns="http://www.w3.org/2000/svg"
 width="512.000000pt" height="512.000000pt" viewBox="0 0 512.000000 512.000000"
 preserveAspectRatio="xMidYMid meet">

<g transform="translate(0.000000,512.000000) scale(0.100000,-0.100000)"
fill="#000000" stroke="none">
<path d="M2475 4988 c-75 -27 -136 -84 -214 -197 -53 -78 -63 -114 -33 -129
26 -14 40 -5 79 56 79 124 151 190 220 201 43 7 63 33 47 59 -13 20 -58 25
-99 10z"/>
<path d="M3035 4985 c-235 -44 -466 -174 -648 -365 -64 -66 -88 -84 -127 -96
-65 -19 -177 -95 -277 -188 l-81 -76 -102 -11 c-316 -32 -607 -170 -810 -385
-71 -74 -110 -128 -208 -284 -23 -36 -61 -85 -86 -109 -39 -38 -47 -42 -61
-31 -14 12 -13 16 8 39 44 46 56 86 77 247 12 88 23 168 26 180 3 12 -1 26
-10 34 -35 28 -179 -18 -258 -84 -121 -98 -163 -290 -83 -376 15 -17 24 -41
27 -76 6 -62 34 -121 71 -148 23 -17 43 -21 108 -21 72 0 79 -2 79 -20 -3
-174 -39 -426 -80 -558 -18 -57 -26 -69 -84 -116 -113 -91 -140 -168 -92 -263
56 -115 245 -321 335 -367 43 -22 104 -27 145 -11 31 11 33 2 11 -60 -30 -84
-15 -153 44 -202 45 -38 484 -158 577 -158 77 0 103 41 110 173 7 122 9 131
44 171 39 43 57 89 65 157 3 30 8 69 11 87 l5 32 146 0 147 0 -45 -29 c-70
-45 -94 -76 -93 -121 3 -81 113 -249 246 -376 92 -88 150 -117 225 -115 77 1
115 23 159 89 58 89 104 142 163 188 l54 43 51 -27 c51 -27 52 -27 256 -27
224 1 304 12 347 50 24 20 28 32 31 91 2 38 -3 116 -12 174 -8 58 -18 143 -21
190 -9 116 -36 213 -91 321 -44 89 -45 91 -17 71 15 -11 60 -49 99 -85 93 -84
140 -102 264 -102 114 0 187 23 240 75 21 21 57 82 90 153 l55 118 35 -6 c19
-3 64 -11 100 -17 195 -32 375 36 539 203 186 190 281 445 281 756 0 330 -87
620 -208 695 -27 16 -45 20 -101 16 -91 -5 -121 -28 -191 -152 -59 -105 -85
-129 -132 -124 -29 3 -32 8 -69 112 -45 126 -76 183 -120 220 -17 14 -88 55
-157 91 -121 61 -132 69 -242 182 -131 133 -202 179 -337 214 -105 27 -318 34
-428 14z m412 -88 c117 -33 161 -62 297 -196 119 -117 140 -133 235 -181 133
-66 177 -94 197 -125 16 -25 74 -161 74 -175 0 -4 -27 -10 -59 -13 -33 -3 -94
-15 -136 -28 -63 -18 -76 -26 -82 -47 -7 -28 21 -57 45 -47 8 3 25 8 38 11 22
6 24 3 24 -34 0 -31 -4 -41 -20 -45 -23 -6 -28 -45 -8 -65 8 -8 52 -12 130
-12 113 0 118 -1 118 -21 0 -21 -3 -21 -108 -14 -121 8 -156 -1 -205 -51 -43
-43 -60 -80 -47 -104 17 -32 40 -24 90 30 29 31 55 50 68 50 l22 0 -24 -37
c-29 -45 -49 -116 -41 -143 15 -48 70 -29 80 28 13 80 55 119 144 136 l33 6
-6 -108 c-3 -59 -7 -125 -9 -147 -2 -37 0 -40 26 -43 23 -3 30 2 44 35 14 31
17 71 18 208 0 94 -4 200 -8 238 l-8 67 33 0 c25 0 29 -3 20 -12 -17 -17 -15
-43 4 -58 37 -31 242 40 282 98 29 41 75 169 69 187 -9 21 -36 30 -54 19 -9
-5 -26 -39 -40 -74 -13 -36 -33 -74 -44 -86 -27 -28 -103 -62 -160 -69 l-44
-7 40 24 c27 16 53 46 82 93 23 39 53 89 66 112 31 50 89 73 138 53 110 -46
208 -449 179 -739 -26 -264 -121 -467 -290 -624 -100 -93 -216 -149 -319 -155
-158 -9 -386 58 -726 214 -40 18 -65 -73 -65 -237 0 -216 73 -292 216 -225 84
39 140 108 178 219 4 14 12 17 28 11 13 -3 24 -8 26 -9 2 -2 -24 -57 -57 -123
-57 -113 -63 -121 -107 -142 -59 -29 -174 -38 -241 -20 -34 10 -67 33 -122 83
-85 77 -223 172 -352 241 l-86 46 -24 -19 c-34 -28 -20 -45 77 -98 116 -65
124 -71 124 -98 0 -35 -63 -274 -100 -380 -42 -119 -105 -240 -153 -292 -21
-23 -99 -83 -173 -134 -140 -95 -197 -150 -267 -256 -40 -61 -72 -83 -125 -83
-52 0 -194 121 -282 240 -46 63 -100 159 -100 179 0 32 111 92 253 136 96 30
90 23 107 138 12 84 6 107 -31 107 -24 0 -32 -15 -44 -85 l-10 -60 -253 -3
-252 -2 0 44 c0 92 -18 124 -60 111 -15 -5 -18 -27 -23 -178 -6 -192 -16 -238
-57 -282 -43 -45 -60 -95 -61 -182 -1 -105 -8 -127 -42 -131 -29 -4 -206 38
-392 92 -142 41 -160 57 -151 126 3 25 24 101 46 170 22 68 40 134 40 145 0
12 -29 72 -64 133 -262 459 -324 943 -164 1282 136 288 384 505 691 604 80 26
221 56 264 56 l24 0 -23 -29 c-363 -446 -458 -588 -458 -686 0 -60 80 -175
226 -327 l74 -76 -17 -39 c-10 -22 -17 -67 -17 -108 -1 -60 3 -78 28 -123 50
-89 121 -139 229 -162 82 -17 136 -6 289 56 209 86 280 112 365 129 227 46
283 87 283 208 0 103 -113 954 -128 969 -5 5 -20 8 -33 6 -18 -2 -25 -10 -27
-33 -1 -16 17 -181 42 -365 78 -587 80 -619 36 -651 -14 -11 -56 -26 -95 -35
-186 -43 -243 -61 -415 -132 -164 -67 -193 -76 -250 -76 -89 -1 -167 37 -213
102 -27 41 -32 55 -32 108 0 53 6 74 47 155 26 52 72 127 103 168 58 76 65
105 32 125 -16 9 -32 -3 -120 -93 l-101 -105 -68 75 c-38 40 -91 107 -118 147
l-49 72 14 41 c57 161 485 691 690 856 82 66 168 113 205 113 13 0 57 37 123
104 185 188 362 291 587 341 82 19 340 13 417 -8z m753 -842 l34 -35 -37 0
c-36 0 -37 1 -37 35 0 19 1 35 3 35 2 0 18 -16 37 -35z m-3544 -222 c-3 -16
-10 -73 -16 -127 -14 -121 -20 -138 -71 -193 -48 -52 -46 -70 11 -125 40 -39
66 -46 102 -27 31 16 33 3 4 -26 -23 -23 -33 -26 -83 -23 -73 4 -95 30 -101
120 -4 56 -8 66 -36 89 -29 25 -31 31 -29 87 2 104 59 184 165 232 56 26 61
25 54 -7z m64 -1110 c0 -34 88 -278 137 -383 27 -58 69 -136 92 -175 40 -66
42 -72 32 -107 -21 -69 -138 -112 -198 -72 -78 50 -241 232 -283 315 -37 71
-20 112 74 186 63 50 96 106 117 201 12 50 29 71 29 35z m2983 -43 c21 0 48 5
59 11 15 8 19 8 14 0 -11 -16 -82 -51 -105 -51 -13 0 -27 12 -36 30 -20 39
-19 44 7 26 12 -9 40 -16 61 -16z m-378 -316 c7 -28 16 -86 20 -130 3 -43 13
-126 21 -184 17 -125 20 -208 8 -220 -29 -29 -455 -43 -502 -17 -22 13 -22 14
33 52 79 54 136 121 188 222 46 88 108 258 142 387 l19 70 29 -65 c15 -35 34
-87 42 -115z"/>
<path d="M2428 4334 c-137 -33 -177 -73 -258 -259 -92 -210 -87 -193 -68 -211
39 -39 67 -2 147 191 23 54 43 101 45 103 2 2 3 -31 3 -73 -2 -58 2 -78 13
-85 44 -28 67 1 68 88 1 38 6 80 11 93 21 56 85 89 171 89 65 0 89 29 54 64
-19 20 -106 20 -186 0z"/>
<path d="M3195 4328 c-57 -31 -109 -111 -121 -186 -5 -34 -3 -42 14 -51 33
-17 50 -3 67 54 21 73 54 111 104 119 43 7 62 35 41 61 -15 18 -76 19 -105 3z"/>
<path d="M3499 4056 c-97 -26 -197 -110 -249 -208 -20 -39 -22 -49 -11 -62 19
-23 56 -20 73 6 18 27 30 19 63 -36 21 -37 23 -46 13 -73 -15 -39 -5 -63 26
-63 19 0 34 15 69 68 65 96 126 138 224 150 62 8 86 29 67 60 -8 12 -25 17
-60 18 -43 1 -50 4 -70 35 -15 23 -20 43 -17 61 11 56 -32 70 -128 44z m-25
-187 l58 -11 -36 -29 c-19 -17 -37 -31 -40 -32 -2 -1 -23 20 -46 46 -38 43
-40 47 -19 43 13 -3 50 -10 83 -17z"/>
<path d="M307 3900 c-83 -53 -127 -154 -127 -294 0 -85 4 -98 32 -109 33 -12
48 19 48 102 0 133 31 198 123 254 44 28 33 77 -17 77 -7 0 -33 -13 -59 -30z"/>
<path d="M135 3876 c-41 -41 -62 -170 -30 -196 34 -28 65 8 65 78 0 22 9 42
30 64 35 36 36 41 14 62 -22 23 -51 20 -79 -8z"/>
<path d="M252 1338 c-10 -13 -222 -981 -222 -1015 0 -37 20 -43 141 -43 86 0
121 4 131 14 8 7 41 131 73 275 l59 261 56 0 c101 0 219 -13 223 -24 2 -6 -20
-117 -49 -246 -29 -129 -53 -238 -53 -242 -1 -4 6 -14 15 -22 23 -23 255 -23
278 0 9 8 16 19 16 23 0 5 21 -2 47 -15 46 -24 48 -24 394 -24 303 0 350 2
363 16 9 8 16 23 16 31 0 13 4 12 23 -5 13 -13 39 -27 58 -32 19 -6 182 -10
371 -10 l338 0 16 25 16 24 30 -22 c29 -21 38 -22 326 -25 320 -3 363 1 420
45 l34 25 26 -25 c15 -14 40 -31 55 -36 45 -17 602 -14 652 4 21 8 41 12 43
10 2 -2 -5 -45 -17 -95 -26 -113 -26 -136 -2 -150 24 -12 201 -13 234 -1 24 9
25 13 58 169 l11 52 200 0 c121 0 216 5 239 11 49 15 102 59 122 101 25 53
111 521 103 562 -9 47 -61 101 -111 115 -53 14 -619 15 -646 1 -10 -6 -19 -17
-19 -25 0 -20 -5 -19 -41 8 -30 21 -38 22 -322 25 -324 4 -378 -2 -426 -47
l-30 -28 -18 24 c-35 46 -76 52 -378 53 -207 0 -295 -4 -334 -14 -52 -13 -52
-13 -47 8 48 196 51 218 31 232 -25 19 -234 20 -257 2 -10 -8 -23 -48 -33 -98
-8 -47 -18 -95 -20 -107 -5 -21 -8 -22 -258 -25 -244 -3 -253 -4 -289 -26 -21
-13 -38 -28 -38 -34 0 -5 -14 2 -31 16 -17 14 -40 28 -52 31 -12 3 -184 4
-381 3 -384 -3 -364 -1 -380 -52 -6 -17 -8 -16 -28 9 -43 55 -84 65 -287 65
l-183 0 5 23 c3 12 13 64 23 114 23 126 27 123 -146 123 -98 0 -140 -4 -148
-12z m218 -77 c0 -9 -27 -159 -35 -198 -3 -12 2 -28 11 -37 13 -14 48 -16 226
-16 l210 0 34 -34 c24 -24 34 -43 34 -66 0 -17 -23 -148 -51 -291 l-52 -259
-73 0 -74 0 7 28 c3 15 25 113 48 217 46 206 46 232 1 271 -22 20 -41 22 -196
29 -108 5 -175 4 -181 -2 -9 -9 -28 -89 -109 -445 l-22 -98 -64 0 c-45 0 -64
4 -64 13 0 6 43 210 95 452 52 242 95 441 95 442 0 2 36 3 80 3 44 0 80 -4 80
-9z m2204 -48 c-3 -16 -47 -212 -98 -438 l-92 -410 -319 -3 c-353 -3 -365 -1
-365 58 0 16 23 141 51 277 43 210 55 252 75 273 l24 25 267 3 c153 2 272 7
279 13 6 5 17 37 24 72 6 34 16 83 22 110 l10 47 64 0 64 0 -6 -27z m-904
-233 c11 -11 20 -28 20 -37 0 -10 -28 -145 -62 -300 l-61 -283 -323 0 -323 0
-28 24 -28 24 23 118 c42 214 32 208 372 212 160 2 259 7 267 14 8 6 13 33 13
62 0 43 -4 57 -26 77 -26 24 -26 24 -285 27 l-260 3 6 22 c4 12 9 30 11 40 5
16 30 17 335 17 316 0 330 -1 349 -20z m1644 -1 c14 -11 26 -29 26 -39 0 -32
-109 -483 -125 -518 -27 -58 -50 -62 -372 -62 -320 0 -333 2 -333 61 0 44 97
485 114 518 30 57 52 61 372 61 280 0 292 -1 318 -21z m817 10 c42 -22 40 -45
-21 -304 -36 -153 -66 -258 -78 -274 -36 -49 -47 -51 -360 -51 l-293 0 -24 25
c-14 13 -25 28 -25 32 0 4 27 120 60 258 60 251 74 288 121 312 31 16 590 18
620 2z m764 -14 c14 -13 25 -35 25 -47 0 -51 -90 -492 -105 -515 -31 -47 -66
-53 -308 -53 -168 0 -227 -3 -235 -12 -7 -10 -52 -192 -52 -213 0 -3 -27 -5
-60 -5 -47 0 -60 3 -60 15 0 13 174 794 186 838 5 16 28 17 295 17 l290 0 24
-25z m-3427 -152 c3 -10 -50 -13 -240 -13 -222 0 -247 -2 -282 -19 l-38 -20 6
22 c3 12 6 28 6 35 0 18 541 13 548 -5z"/>
<path d="M2090 882 c-56 -28 -75 -68 -95 -193 -19 -127 -15 -166 21 -200 25
-23 32 -24 190 -27 163 -3 164 -3 173 20 6 13 28 106 51 207 31 141 38 186 29
197 -9 11 -47 14 -173 14 -133 0 -167 -3 -196 -18z m285 -84 c-16 -67 -55
-248 -55 -253 0 -3 -57 -4 -127 -3 l-128 3 2 48 c3 87 24 188 44 208 17 17 35
19 144 19 125 0 125 0 120 -22z"/>
<path d="M1144 606 c-43 -43 -46 -91 -10 -133 l24 -28 189 -3 c149 -3 192 0
207 11 23 17 49 142 35 169 -9 16 -28 18 -210 18 l-201 0 -34 -34z m364 -63
c-3 -16 -20 -18 -161 -21 -127 -2 -157 0 -157 11 0 8 3 17 7 20 3 4 76 7 160
7 142 0 154 -1 151 -17z"/>
<path d="M2873 896 c-47 -21 -59 -46 -98 -208 -35 -142 -36 -149 -20 -181 9
-19 27 -39 41 -46 15 -7 88 -11 192 -11 148 0 171 2 199 20 42 25 48 39 83
184 38 157 38 195 4 227 -25 23 -31 24 -197 26 -131 2 -180 0 -204 -11z m347
-86 c0 -27 -50 -241 -62 -262 -8 -16 -26 -18 -168 -18 -87 0 -161 4 -164 9 -9
15 55 265 72 279 11 8 62 12 169 12 146 0 153 -1 153 -20z"/>
<path d="M3705 896 c-51 -22 -64 -47 -100 -194 -39 -160 -40 -161 -23 -197 22
-48 52 -55 228 -55 174 0 214 8 242 51 17 26 78 272 78 314 0 37 -16 62 -50
80 -39 20 -330 21 -375 1z m340 -76 c8 -14 -43 -239 -61 -267 -14 -22 -19 -23
-174 -23 -133 0 -160 2 -160 14 0 30 60 259 71 272 14 17 314 21 324 4z"/>
<path d="M4491 883 c-5 -10 -28 -103 -51 -206 -33 -149 -39 -191 -30 -202 10
-12 44 -15 169 -15 143 0 161 2 201 22 56 29 75 66 94 190 23 141 22 154 -18
194 l-34 34 -161 0 c-142 0 -161 -2 -170 -17z m316 -79 c3 -9 -2 -61 -11 -117
-24 -145 -26 -147 -184 -147 -95 0 -123 3 -119 13 2 6 17 69 32 140 l28 127
124 0 c104 0 125 -3 130 -16z"/>
</g>
</svg>
