<?xml version="1.0" standalone="no"?>
<!DOCTYPE svg PUBLIC "-//W3C//DTD SVG 20010904//EN"
 "http://www.w3.org/TR/2001/REC-SVG-20010904/DTD/svg10.dtd">
<svg version="1.0" xmlns="http://www.w3.org/2000/svg"
 width="300.000000pt" height="300.000000pt" viewBox="0 0 300.000000 300.000000"
 preserveAspectRatio="xMidYMid meet">
<metadata>
Created by potrace 1.10, written by Peter Selinger 2001-2011
</metadata>
<g transform="translate(0.000000,300.000000) scale(0.100000,-0.100000)"
fill="#000000" stroke="none">
<path d="M1230 2975 c-508 -96 -920 -430 -1118 -906 -58 -140 -102 -331 -102
-443 0 -72 6 -69 20 9 23 127 29 152 48 225 122 455 450 830 873 999 83 33
233 77 314 91 122 22 158 30 163 35 10 10 -132 3 -198 -10z"/>
<path d="M1572 2985 c5 -6 52 -15 163 -35 164 -28 374 -107 525 -196 235 -140
451 -382 570 -638 62 -135 87 -221 141 -495 13 -64 19 -63 19 5 0 68 -20 188
-49 291 -75 263 -247 535 -450 709 -213 183 -457 301 -726 349 -78 15 -204 21
-193 10z"/>
<path d="M1062 2205 c-12 -9 -41 -48 -64 -88 -23 -40 -67 -115 -98 -167 -31
-52 -69 -117 -84 -145 -30 -53 -83 -146 -128 -223 -48 -82 -47 -86 108 -352
28 -47 93 -159 145 -249 65 -113 103 -170 124 -183 28 -17 58 -18 403 -18 308
0 378 3 401 15 20 10 50 52 97 132 37 65 79 135 92 156 l25 37 92 0 c100 0
150 12 165 40 11 20 14 647 4 674 -12 30 -49 41 -159 46 l-110 5 -67 115 c-37
63 -77 133 -90 155 -13 22 -34 45 -48 52 -19 10 -119 13 -405 13 -327 0 -384
-2 -403 -15z m902 -195 l98 -170 129 0 129 0 0 -340 0 -340 -129 0 -129 0 -98
-170 -99 -170 -396 0 -397 0 -24 43 c-23 40 -189 328 -312 540 l-56 97 143
248 c79 136 167 289 196 340 l53 92 397 0 396 0 99 -170z"/>
<path d="M1195 1935 c-86 -144 -245 -427 -244 -437 0 -7 57 -112 128 -233
l127 -220 63 -1 62 -1 35 54 c18 29 34 56 34 59 0 2 -43 79 -95 170 -52 91
-95 170 -95 175 0 6 43 84 95 174 l96 165 -20 37 c-37 72 -42 75 -111 77 -53
1 -65 -2 -75 -19z m142 -53 c16 -25 20 -39 13 -56 -7 -20 -84 -157 -110 -196
-29 -44 -60 -112 -60 -131 0 -12 37 -88 83 -168 46 -80 86 -154 90 -163 3 -9
-4 -31 -16 -50 -20 -29 -28 -33 -67 -33 l-43 0 -57 95 c-115 191 -172 292
-177 310 -3 11 34 86 97 197 140 244 133 235 183 231 34 -2 45 -9 64 -36z"/>
<path d="M1568 1900 c-16 -28 -28 -54 -28 -59 0 -5 43 -84 96 -175 l96 -166
-96 -166 c-53 -91 -96 -170 -96 -175 0 -6 13 -33 30 -62 l30 -52 65 -1 65 -1
118 206 c65 113 125 216 133 228 12 20 11 26 -6 56 -11 18 -69 119 -130 225
l-110 192 -70 0 -70 0 -27 -50z m144 8 c9 -7 27 -33 40 -58 14 -25 62 -109
106 -187 45 -77 84 -148 87 -155 3 -8 -37 -89 -89 -179 -160 -276 -140 -249
-185 -249 -29 0 -46 6 -61 22 -41 44 -37 58 55 214 47 81 88 158 91 173 4 20
-16 63 -86 185 -97 168 -102 184 -60 226 23 23 78 27 102 8z"/>
<path d="M10 1381 c0 -73 17 -181 46 -284 96 -346 314 -646 609 -842 183 -121
361 -193 570 -230 74 -14 194 -21 184 -11 -2 3 -63 16 -134 31 -342 68 -603
202 -815 415 -110 111 -142 152 -243 314 -76 123 -154 348 -193 561 -9 50 -18
92 -20 94 -2 2 -4 -19 -4 -48z"/>
<path d="M2982 1425 c-1 -5 -9 -41 -17 -80 -9 -38 -24 -110 -34 -160 -79 -372
-326 -724 -646 -922 -159 -99 -374 -184 -520 -208 -61 -9 -179 -35 -183 -40
-9 -9 87 -5 161 6 326 49 669 238 883 488 110 127 215 301 273 448 54 138 96
340 89 428 -3 28 -5 46 -6 40z"/>
</g>
</svg>
