<?xml version="1.0" standalone="no"?>
<!DOCTYPE svg PUBLIC "-//W3C//DTD SVG 20010904//EN"
 "http://www.w3.org/TR/2001/REC-SVG-20010904/DTD/svg10.dtd">
<svg version="1.0" xmlns="http://www.w3.org/2000/svg"
 width="61.000000pt" height="63.000000pt" viewBox="0 0 61.000000 63.000000"
 preserveAspectRatio="xMidYMid meet">
<metadata>
Created by potrace 1.10, written by Peter Selinger 2001-2011
</metadata>
<g transform="translate(0.000000,63.000000) scale(0.100000,-0.100000)"
fill="#000000" stroke="none">
<path d="M76 552 c-2 -4 -6 -39 -7 -77 l-3 -70 52 -3 c48 -3 52 -5 52 -28 0
-23 3 -24 65 -24 62 0 65 -1 65 -25 0 -24 -2 -24 -87 -27 l-88 -3 0 -105 0
-105 178 -3 177 -2 0 110 0 110 -85 0 c-84 0 -85 0 -85 25 0 24 3 25 60 25 57
0 60 1 60 24 0 23 4 25 53 28 41 2 51 6 47 18 -2 8 -6 43 -8 78 l-4 62 -99 0
-99 0 0 -49 c0 -27 -3 -63 -6 -80 l-6 -31 56 0 c49 0 56 -2 56 -20 0 -19 -7
-20 -120 -20 -113 0 -120 1 -120 20 0 18 7 20 56 20 54 0 56 1 50 23 -3 12 -6
48 -6 80 l0 57 -99 0 c-55 0 -102 -4 -105 -8z m194 -56 l0 -53 -45 -6 c-25 -4
-65 -4 -90 0 l-45 6 0 53 0 54 90 0 90 0 0 -54z m240 0 l0 -53 -45 -6 c-25 -4
-65 -4 -90 0 l-45 6 0 53 0 54 90 0 90 0 0 -54z m-365 -76 c4 -6 -8 -10 -29
-10 -20 0 -36 5 -36 10 0 6 13 10 29 10 17 0 33 -4 36 -10z m135 0 c0 -5 -16
-10 -36 -10 -21 0 -33 4 -29 10 3 6 19 10 36 10 16 0 29 -4 29 -10z m105 0 c4
-6 -8 -10 -29 -10 -20 0 -36 5 -36 10 0 6 13 10 29 10 17 0 33 -4 36 -10z
m135 0 c0 -5 -16 -10 -36 -10 -21 0 -33 4 -29 10 3 6 19 10 36 10 16 0 29 -4
29 -10z m-50 -149 c0 -18 -9 -19 -165 -17 -90 1 -167 5 -171 8 -21 22 19 28
172 28 154 0 164 -1 164 -19z m0 -106 l0 -75 -170 0 -170 0 0 75 0 75 170 0
170 0 0 -75z"/>
<path d="M170 500 c0 -23 -4 -30 -20 -30 -15 0 -20 7 -21 28 -2 27 -2 27 -6 2
-3 -14 -10 -28 -17 -33 -6 -4 23 -6 64 -5 l75 3 3 33 c2 18 -1 32 -7 32 -6 0
-11 -13 -11 -30 0 -25 -3 -29 -22 -26 -17 2 -23 10 -23 30 1 14 -3 26 -7 26
-4 0 -8 -13 -8 -30z"/>
<path d="M421 508 c-1 -23 -6 -28 -27 -28 -14 0 -23 4 -19 10 3 6 2 10 -3 10
-8 0 -22 -22 -22 -34 0 -2 30 -3 68 -2 65 1 67 2 70 29 2 15 -1 27 -7 27 -6 0
-11 -9 -11 -20 0 -33 -38 -26 -43 8 l-4 27 -2 -27z"/>
<path d="M370 165 c0 -58 2 -65 20 -65 18 0 20 7 20 65 0 58 -2 65 -20 65 -18
0 -20 -7 -20 -65z"/>
<path d="M152 203 c2 -10 13 -19 26 -21 12 -2 22 -10 22 -17 0 -7 -10 -15 -22
-17 -30 -4 -37 -38 -9 -38 12 0 21 6 21 14 0 8 10 16 23 18 14 2 23 11 25 26
3 18 -1 22 -22 22 -16 0 -26 6 -26 15 0 9 -9 15 -21 15 -14 0 -19 -5 -17 -17z"/>
<path d="M312 153 c2 -36 7 -49 21 -51 14 -3 17 4 17 47 0 45 -3 51 -21 51
-18 0 -20 -5 -17 -47z"/>
<path d="M260 130 c0 -20 5 -30 15 -30 10 0 15 10 15 30 0 20 -5 30 -15 30
-10 0 -15 -10 -15 -30z"/>
</g>
</svg>
