<?xml version="1.0" standalone="no"?>
<!DOCTYPE svg PUBLIC "-//W3C//DTD SVG 20010904//EN"
 "http://www.w3.org/TR/2001/REC-SVG-20010904/DTD/svg10.dtd">
<svg version="1.0" xmlns="http://www.w3.org/2000/svg"
 width="300.000000pt" height="277.000000pt" viewBox="0 0 300.000000 277.000000"
 preserveAspectRatio="xMidYMid meet">
<metadata>
Created by potrace 1.10, written by Peter Selinger 2001-2011
</metadata>
<g transform="translate(0.000000,277.000000) scale(0.100000,-0.100000)"
fill="#000000" stroke="none">
<path d="M1695 2430 c-287 -46 -480 -214 -556 -485 -19 -71 -23 -110 -27 -339
-4 -249 -3 -259 14 -252 56 22 126 30 177 19 28 -6 60 -14 70 -18 16 -7 17 7
17 202 0 232 8 298 50 389 51 112 135 182 264 219 83 24 238 16 320 -16 73
-28 168 -113 202 -181 57 -112 59 -136 59 -605 l0 -433 140 0 140 0 -2 397
c-1 219 -4 434 -7 478 -18 252 -147 458 -346 553 -47 22 -119 48 -160 57 -90
20 -272 28 -355 15z m250 -40 c295 -33 478 -184 551 -455 17 -64 19 -109 19
-515 l0 -445 -90 0 -90 0 -6 415 c-6 447 -9 472 -65 587 -74 153 -233 243
-429 243 -149 0 -259 -45 -353 -144 -102 -107 -131 -214 -132 -471 0 -93 -4
-174 -8 -180 -4 -5 -49 -10 -101 -11 l-93 0 5 225 c4 193 8 237 26 301 36 120
79 198 151 270 146 147 358 209 615 180z"/>
<path d="M532 1721 c-85 -22 -165 -111 -178 -200 -21 -139 92 -271 231 -271
56 0 112 15 134 36 12 10 36 -3 147 -79 l134 -91 0 -63 c0 -35 1 -66 1 -70 1
-4 -57 -47 -129 -96 l-131 -90 -45 22 c-101 47 -236 14 -295 -73 -99 -143 -38
-324 124 -372 158 -45 311 73 304 237 l-2 59 131 90 132 90 38 -19 c135 -68
292 -2 338 144 35 110 -14 226 -116 278 -48 25 -64 28 -127 25 -53 -2 -79 -9
-100 -24 l-28 -21 -134 92 -135 92 3 60 c1 36 -4 75 -12 95 -20 48 -73 105
-117 128 -44 23 -122 32 -168 21z m161 -53 c23 -13 55 -42 71 -66 26 -37 31
-54 34 -117 5 -89 8 -93 149 -187 140 -93 130 -89 193 -66 160 58 302 -30 303
-187 1 -65 -16 -107 -58 -150 -60 -59 -133 -75 -220 -46 -33 11 -68 21 -79 21
-19 0 -212 -125 -258 -168 -25 -23 -28 -33 -28 -89 0 -76 -17 -113 -72 -165
-45 -40 -96 -57 -158 -52 -77 7 -131 49 -171 131 -40 83 -9 184 77 249 46 36
139 45 198 20 21 -9 51 -16 66 -16 31 0 207 113 258 166 29 31 32 39 32 98 0
70 -16 99 -75 139 -18 12 -67 46 -110 75 -84 56 -120 64 -171 37 -41 -21 -127
-19 -173 4 -116 60 -152 191 -81 301 61 96 173 123 273 68z"/>
</g>
</svg>
