<?xml version="1.0" standalone="no"?>
<!DOCTYPE svg PUBLIC "-//W3C//DTD SVG 20010904//EN"
 "http://www.w3.org/TR/2001/REC-SVG-20010904/DTD/svg10.dtd">
<svg version="1.0" xmlns="http://www.w3.org/2000/svg"
 width="512.000000pt" height="512.000000pt" viewBox="0 0 512.000000 512.000000"
 preserveAspectRatio="xMidYMid meet">

<g transform="translate(0.000000,512.000000) scale(0.100000,-0.100000)"
fill="#000000" stroke="none">
<path d="M412 5100 c-97 -26 -173 -70 -248 -144 -75 -76 -119 -151 -144 -252
-20 -76 -20 -115 -20 -2144 0 -2029 0 -2068 20 -2144 25 -101 69 -176 144
-252 76 -75 151 -119 252 -144 76 -20 115 -20 2144 -20 2029 0 2068 0 2144 20
101 25 176 69 252 144 75 76 119 151 144 252 20 76 20 115 20 2144 0 2029 0
2068 -20 2144 -26 103 -69 177 -149 256 -79 77 -142 114 -247 140 -76 20 -117
20 -2148 19 -2010 0 -2073 -1 -2144 -19z m866 -2324 c183 -102 173 -359 -18
-445 -40 -18 -65 -21 -235 -21 -104 0 -207 5 -227 10 -56 16 -119 69 -147 125
-21 39 -26 63 -25 115 1 109 63 195 166 231 46 17 78 19 243 17 189 -3 190 -3
243 -32z m699 2 c48 -32 73 -80 73 -143 0 -88 -59 -152 -151 -164 l-52 -6 78
-65 c44 -36 86 -70 94 -77 13 -10 3 -12 -54 -13 l-70 0 -137 118 c-75 64 -137
120 -137 125 -1 4 64 7 144 7 142 0 147 1 170 25 30 29 32 74 6 106 -19 23
-24 24 -200 27 l-181 3 0 -205 0 -206 -45 0 -45 0 0 251 0 250 233 -3 234 -3
40 -27z m485 20 c8 -7 59 -83 113 -168 55 -85 123 -192 152 -237 l53 -83 -57
0 c-58 1 -58 1 -85 45 l-27 45 -130 0 -129 0 -21 34 c-12 18 -21 36 -21 40 0
3 54 6 120 6 66 0 120 3 120 6 0 8 -121 203 -128 208 -4 2 -61 -83 -127 -190
l-120 -193 -58 -1 -57 0 23 38 c173 272 282 439 295 450 9 6 28 12 42 12 14 0
33 -6 42 -12z m858 7 c0 -3 -12 -23 -26 -45 l-27 -40 -156 0 c-143 0 -161 -2
-201 -22 -59 -30 -93 -93 -87 -157 5 -49 29 -86 77 -118 31 -22 42 -23 232
-23 l200 0 -25 -42 -25 -43 -173 -3 c-199 -3 -242 6 -303 66 -54 51 -76 103
-76 181 0 80 25 137 83 186 64 55 106 64 320 64 103 1 187 -1 187 -4z m150
-200 l0 -205 220 0 c121 0 220 -3 220 -6 0 -4 -10 -24 -22 -45 l-22 -39 -231
0 c-166 0 -234 3 -243 12 -9 9 -12 78 -12 250 l0 238 45 0 45 0 0 -205z m1008
183 c-8 -13 -21 -33 -29 -45 -13 -22 -19 -23 -169 -23 -131 0 -161 -3 -197
-20 -37 -16 -83 -68 -83 -92 0 -4 103 -9 230 -10 l229 -3 -27 -42 -27 -43
-202 0 c-118 0 -203 -4 -203 -9 0 -16 51 -71 81 -86 22 -12 71 -15 219 -15
104 0 190 -2 190 -6 0 -3 -10 -23 -22 -45 l-23 -40 -186 3 -186 3 -49 30
c-135 84 -159 267 -51 382 67 71 114 82 336 83 l183 0 -14 -22z"/>
<path d="M825 2704 c-44 -23 -66 -45 -81 -81 -29 -69 -6 -153 54 -198 24 -18
45 -20 222 -23 190 -3 196 -2 230 20 39 26 80 97 80 139 0 47 -42 111 -90 136
-40 21 -55 23 -214 23 -136 0 -177 -3 -201 -16z"/>
</g>
</svg>
