<?xml version="1.0" standalone="no"?>
<!DOCTYPE svg PUBLIC "-//W3C//DTD SVG 20010904//EN"
 "http://www.w3.org/TR/2001/REC-SVG-20010904/DTD/svg10.dtd">
<svg version="1.0" xmlns="http://www.w3.org/2000/svg"
 width="300.000000pt" height="286.000000pt" viewBox="0 0 300.000000 286.000000"
 preserveAspectRatio="xMidYMid meet">
<metadata>
Created by potrace 1.10, written by Peter Selinger 2001-2011
</metadata>
<g transform="translate(0.000000,286.000000) scale(0.100000,-0.100000)"
fill="#000000" stroke="none">
<path d="M1238 2831 c-1 -6 -25 -11 -53 -12 -55 -2 -66 -4 -210 -50 -360 -114
-643 -357 -814 -696 -51 -102 -107 -269 -116 -345 -3 -32 -10 -58 -14 -58 -4
0 -7 -87 -7 -194 0 -107 3 -193 7 -190 4 2 10 -24 14 -59 16 -136 97 -338 202
-499 111 -171 272 -322 457 -430 87 -51 257 -123 314 -133 26 -4 40 -11 35
-17 -3 -6 -2 -8 4 -5 5 3 58 -3 118 -13 268 -49 557 -3 835 133 24 12 49 25
55 30 5 4 41 28 79 52 l68 46 77 -62 c42 -35 105 -88 141 -118 36 -31 104 -89
153 -130 l87 -73 45 48 c25 26 45 50 45 52 0 2 41 51 90 108 l91 104 -33 28
c-18 15 -98 83 -178 152 -80 69 -162 139 -182 155 -44 35 -46 47 -15 89 39 53
94 157 125 241 16 44 33 89 38 100 10 26 9 22 18 77 4 27 10 48 14 48 11 0 17
100 17 275 -1 118 -6 183 -19 245 -10 47 -20 92 -21 100 -1 8 -5 24 -10 35 -4
11 -24 63 -44 115 -21 52 -55 127 -78 165 -23 39 -41 73 -42 78 -1 4 -9 15
-18 25 -10 10 -28 32 -40 48 -52 67 -131 153 -173 187 -25 20 -62 52 -83 72
-20 19 -37 33 -37 30 0 -2 -31 15 -69 40 -76 49 -229 123 -273 132 -15 3 -28
10 -28 16 0 6 -2 8 -5 5 -3 -3 -38 3 -78 14 -40 11 -101 22 -137 24 -36 3 -66
9 -68 15 -5 12 -279 12 -284 0z m357 -46 c275 -41 534 -173 730 -370 111 -112
116 -119 186 -230 61 -98 119 -214 119 -238 0 -9 4 -18 8 -21 5 -3 16 -36 26
-73 9 -37 21 -81 26 -98 19 -66 33 -232 27 -344 -11 -226 -78 -444 -192 -627
-25 -40 -45 -76 -45 -82 0 -21 48 -68 213 -209 95 -80 178 -152 186 -159 12
-11 9 -19 -15 -52 -32 -43 -111 -136 -164 -194 l-35 -38 -30 26 c-16 14 -50
42 -74 62 -25 21 -90 76 -145 123 -153 130 -194 159 -214 152 -9 -3 -46 -25
-82 -48 -159 -104 -337 -173 -528 -206 -142 -24 -384 -15 -512 20 -19 5 -61
16 -93 25 -69 19 -248 104 -326 154 -120 78 -241 188 -321 292 -19 25 -37 47
-40 50 -14 13 -90 141 -115 195 -100 220 -128 346 -128 580 0 233 38 399 139
598 40 78 118 201 148 233 6 6 29 32 50 58 56 67 216 198 309 253 143 83 327
149 482 172 97 14 303 12 410 -4z"/>
<path d="M1302 2338 c-50 -4 -112 -14 -137 -23 -25 -8 -50 -15 -56 -15 -5 0
-46 -17 -92 -39 -240 -112 -430 -347 -481 -594 -25 -120 -30 -207 -16 -303 46
-329 275 -607 590 -716 30 -10 69 -21 85 -24 17 -2 53 -8 81 -12 66 -11 210
-6 282 9 75 15 205 65 267 103 72 43 190 141 222 184 16 20 37 47 48 60 11 13
36 54 56 90 119 221 139 480 56 708 -27 73 -99 204 -132 240 -5 6 -24 26 -40
45 -45 50 -142 131 -209 173 -72 46 -239 103 -326 111 -36 4 -74 8 -85 9 -11
1 -62 -1 -113 -6z m256 -44 c277 -57 515 -261 615 -529 40 -108 49 -160 50
-295 0 -138 -18 -224 -72 -344 -76 -168 -247 -343 -401 -409 -19 -9 -51 -22
-70 -30 -67 -30 -254 -60 -315 -51 -11 1 -51 5 -90 9 -184 18 -341 98 -490
249 -75 75 -100 108 -142 191 -68 134 -96 247 -97 390 -1 390 278 737 659 818
94 20 257 21 353 1z"/>
<path d="M1245 1991 c-103 -29 -157 -61 -237 -141 -112 -111 -158 -221 -158
-378 0 -342 311 -591 652 -521 192 39 367 210 407 397 14 67 14 176 0 244 -31
148 -144 291 -283 358 -45 21 -101 44 -126 49 -67 16 -187 12 -255 -8z m291
-35 c122 -43 240 -140 297 -243 84 -155 75 -360 -21 -509 -179 -274 -552 -315
-782 -85 -125 126 -173 284 -140 462 34 181 214 356 395 386 17 3 32 7 35 10
9 10 175 -6 216 -21z"/>
</g>
</svg>
