<?xml version="1.0" standalone="no"?>
<!DOCTYPE svg PUBLIC "-//W3C//DTD SVG 20010904//EN"
 "http://www.w3.org/TR/2001/REC-SVG-20010904/DTD/svg10.dtd">
<svg version="1.0" xmlns="http://www.w3.org/2000/svg"
 width="512.000000pt" height="512.000000pt" viewBox="0 0 512.000000 512.000000"
 preserveAspectRatio="xMidYMid meet">

<g transform="translate(0.000000,512.000000) scale(0.100000,-0.100000)"
fill="#000000" stroke="none">
<path d="M2810 5014 c-214 -33 -372 -108 -516 -246 l-62 -59 -71 54 c-328 246
-789 275 -1145 72 -189 -108 -333 -262 -426 -457 -57 -120 -90 -245 -97 -364
l-6 -102 -51 -21 c-167 -70 -303 -241 -342 -431 -71 -351 179 -687 539 -725
l67 -7 0 -923 0 -923 -125 -4 c-114 -3 -126 -5 -147 -26 -21 -21 -23 -31 -22
-140 1 -139 14 -201 62 -302 71 -147 220 -260 387 -295 105 -22 3315 -22 3420
0 167 35 308 143 384 294 51 104 63 167 59 306 -4 158 -5 159 -178 163 l-130
4 0 928 0 928 78 6 c123 10 189 23 250 51 130 59 231 170 280 308 36 98 37
251 4 342 -55 150 -171 267 -317 321 l-60 22 2 54 c6 140 -33 310 -98 423
-126 222 -375 365 -634 365 -72 0 -201 -22 -237 -41 -14 -7 -24 2 -54 48 -54
82 -166 190 -255 246 -161 100 -396 155 -559 131z m257 -169 c187 -44 364
-176 454 -336 19 -34 42 -70 52 -80 24 -26 73 -24 138 5 198 90 451 37 614
-128 137 -139 189 -323 153 -536 -12 -67 -11 -70 11 -94 17 -18 39 -27 78 -32
31 -4 86 -22 124 -41 179 -89 251 -301 166 -486 -64 -139 -195 -217 -368 -217
l-78 0 -3 253 c-3 244 -4 254 -28 302 -33 69 -107 139 -177 167 l-58 23 -1545
3 c-968 2 -1569 -1 -1608 -7 -119 -18 -211 -86 -261 -191 -26 -54 -26 -59 -29
-307 l-3 -253 -45 0 c-152 0 -327 128 -385 281 -99 259 35 526 303 605 26 8
52 23 58 33 5 10 11 74 14 142 7 199 63 363 174 509 323 426 925 478 1332 114
90 -80 96 -78 228 54 120 121 210 177 344 212 90 23 257 26 345 5z m1091
-1374 c46 -23 67 -46 87 -94 13 -32 15 -182 15 -1267 l0 -1230 -1702 2 -1703
3 0 1241 0 1240 27 41 c15 23 44 49 70 62 l43 21 1563 0 c1514 0 1564 -1 1600
-19z m-2108 -2833 c0 -101 22 -153 82 -194 l41 -29 371 -3 c397 -3 422 -1 477
45 48 41 69 95 69 186 l0 77 738 -2 737 -3 -1 -60 c-2 -129 -66 -249 -173
-322 -115 -79 32 -74 -1846 -71 l-1680 3 -67 32 c-146 69 -238 214 -238 375
l0 48 745 0 745 0 0 -82z m878 10 l-3 -73 -354 -3 c-277 -2 -356 1 -363 10 -4
7 -8 41 -8 76 l0 62 365 0 366 0 -3 -72z"/>
<path d="M1305 3291 c-72 -18 -139 -73 -172 -140 -26 -52 -24 -163 4 -217 24
-45 81 -100 119 -114 23 -9 24 -13 24 -110 0 -94 2 -103 25 -125 l24 -25 431
0 431 0 -3 -97 -3 -96 -42 -14 c-23 -8 -62 -32 -86 -54 l-45 -39 -180 0 c-175
0 -181 1 -187 21 -11 33 -75 98 -119 122 -53 27 -156 29 -206 3 -93 -48 -144
-128 -144 -226 0 -98 51 -178 144 -226 50 -26 153 -24 206 3 44 24 108 89 119
122 6 20 12 21 161 21 l154 0 0 -145 0 -145 -305 0 c-201 0 -312 -4 -328 -11
-37 -17 -47 -50 -47 -149 l0 -89 -32 -17 c-198 -100 -173 -398 38 -460 98 -28
187 -3 256 74 47 52 61 98 56 182 -4 85 -37 137 -116 190 -49 32 -52 36 -52
77 l0 43 264 0 264 0 4 -142 c4 -164 14 -195 90 -264 85 -78 90 -79 543 -79
358 0 405 2 444 18 69 27 126 80 160 149 30 59 31 66 31 190 l0 128 230 0 230
0 0 -43 c0 -41 -3 -45 -52 -77 -79 -53 -112 -105 -116 -190 -5 -84 9 -130 56
-182 98 -108 256 -115 356 -14 118 117 91 320 -50 389 l-44 21 0 93 c0 102
-10 135 -47 152 -16 7 -117 11 -293 11 l-270 0 0 145 0 145 148 0 147 0 20
-36 c45 -85 159 -144 248 -130 191 31 279 247 162 400 -30 40 -106 83 -162 92
-89 14 -203 -45 -248 -130 l-20 -36 -174 0 -175 0 -29 27 c-15 16 -49 40 -75
54 l-47 25 -3 97 -3 97 386 0 386 0 24 25 c23 22 25 31 25 128 0 100 1 105 23
111 35 9 96 64 119 109 29 55 31 165 5 218 -80 161 -293 193 -408 62 -44 -51
-59 -92 -59 -163 0 -99 46 -177 133 -221 37 -19 38 -22 35 -67 l-3 -47 -332
-3 -331 -2 -13 37 c-61 192 -212 305 -404 305 -175 0 -330 -109 -390 -274
l-23 -63 -378 0 -379 0 -3 47 c-3 45 -2 48 35 67 87 44 133 122 133 223 0 130
-87 226 -220 241 -25 3 -58 2 -75 -2z m99 -172 c15 -12 31 -32 36 -45 29 -75
-83 -151 -140 -94 -43 43 -38 110 13 140 41 25 58 25 91 -1z m2415 -5 c63 -53
28 -154 -54 -154 -48 0 -95 45 -95 90 0 22 9 41 29 61 37 37 79 38 120 3z
m-1082 -250 c56 -35 109 -101 122 -152 5 -20 10 -106 11 -190 l1 -152 -263 2
-263 3 0 165 c0 164 0 165 30 219 55 100 133 143 248 137 53 -3 77 -9 114 -32z
m-1253 -620 c58 -58 17 -154 -66 -154 -54 0 -88 35 -88 90 0 84 95 123 154 64z
m2328 15 c11 -6 26 -26 34 -45 40 -95 -84 -172 -150 -93 -15 17 -26 43 -26 59
0 44 44 90 87 90 19 0 43 -5 55 -11z m-786 -81 c22 -21 38 -47 44 -73 12 -54
11 -608 -1 -665 -12 -54 -50 -97 -98 -110 -21 -6 -186 -10 -386 -10 -322 0
-353 2 -392 19 -76 35 -78 44 -81 386 -4 376 -2 397 48 447 l38 38 396 0 396
0 36 -32z m-1611 -790 c15 -14 28 -38 32 -60 5 -32 1 -41 -25 -68 -62 -61
-152 -26 -152 60 0 80 85 120 145 68z m2413 -14 c31 -36 29 -79 -7 -115 -16
-16 -39 -29 -51 -29 -60 0 -110 63 -90 114 25 66 102 82 148 30z"/>
<path d="M2510 1536 c0 -30 3 -62 6 -71 10 -25 62 -47 95 -40 42 9 59 40 59
108 0 54 -1 57 -19 47 -25 -13 -97 -13 -122 0 -18 10 -19 7 -19 -44z"/>
</g>
</svg>
