<?xml version="1.0" standalone="no"?>
<!DOCTYPE svg PUBLIC "-//W3C//DTD SVG 20010904//EN"
 "http://www.w3.org/TR/2001/REC-SVG-20010904/DTD/svg10.dtd">
<svg version="1.0" xmlns="http://www.w3.org/2000/svg"
 width="512.000000pt" height="512.000000pt" viewBox="0 0 512.000000 512.000000"
 preserveAspectRatio="xMidYMid meet">

<g transform="translate(0.000000,512.000000) scale(0.100000,-0.100000)"
fill="#000000" stroke="none">
<path d="M1250 5024 c-608 -42 -1054 -181 -1146 -356 -11 -22 -14 -97 -14
-398 0 -420 -1 -411 77 -479 259 -229 1166 -349 1923 -255 378 47 687 143 813
254 80 71 77 52 77 474 0 215 -4 385 -10 400 -5 14 -27 43 -48 64 -127 127
-444 225 -892 278 -129 15 -650 27 -780 18z"/>
<path d="M90 3202 c0 -269 3 -338 14 -361 73 -139 407 -268 847 -325 307 -40
795 -46 1074 -12 66 8 146 18 178 22 l58 7 -46 -72 c-26 -40 -72 -124 -102
-187 -41 -85 -60 -115 -76 -119 -48 -10 -339 -25 -500 -25 -679 0 -1292 147
-1423 340 l-24 35 0 -329 0 -329 25 -43 c92 -158 497 -287 1050 -335 76 -6
270 -9 470 -7 l340 3 3 -30 c21 -228 140 -524 291 -725 235 -314 574 -525 956
-596 149 -28 432 -26 575 5 215 46 412 131 587 254 113 79 281 247 360 360
262 373 347 840 232 1283 -107 416 -412 787 -804 979 -217 106 -371 144 -621
152 -212 7 -320 -7 -551 -73 l-23 -6 0 225 0 226 -47 -50 c-285 -305 -1538
-415 -2355 -208 -238 60 -413 151 -470 244 -18 29 -18 24 -18 -303z m2785
-1013 c73 -34 147 -112 173 -182 28 -75 32 -146 9 -180 -44 -67 -157 -32 -157
48 0 45 -40 116 -79 142 -41 27 -126 31 -171 8 -100 -51 -115 -192 -29 -269
37 -34 52 -39 153 -51 69 -7 147 -46 198 -97 169 -169 118 -455 -100 -556 -47
-22 -71 -27 -142 -27 -73 0 -93 4 -142 28 -115 57 -187 159 -196 279 -4 61 -3
68 21 92 18 18 37 26 62 26 49 0 80 -32 88 -94 13 -94 80 -156 168 -156 96 1
177 88 165 178 -13 98 -59 139 -174 154 -106 13 -181 49 -242 115 -146 159
-112 412 70 521 76 45 103 52 195 48 59 -2 93 -9 130 -27z m847 3 c70 -31 141
-102 174 -175 l29 -62 0 -330 c0 -293 -2 -335 -18 -376 -17 -46 -17 -48 3 -88
26 -49 20 -92 -17 -121 -34 -27 -76 -25 -109 4 l-28 23 -45 -21 c-72 -33 -187
-29 -268 8 -73 33 -143 102 -176 173 -21 47 -22 58 -22 393 0 333 1 347 22
392 25 55 104 143 148 166 91 47 220 53 307 14z m519 -1 l29 -29 0 -480 0
-481 146 -3 c146 -3 146 -3 170 -31 33 -39 31 -81 -5 -118 l-29 -29 -191 0
c-104 0 -201 4 -215 10 -57 21 -57 21 -54 606 l3 536 28 24 c39 33 81 31 118
-5z"/>
<path d="M3520 2032 c-32 -14 -58 -38 -79 -72 -20 -34 -21 -46 -21 -341 0
-301 0 -307 23 -339 39 -58 71 -75 142 -75 35 0 66 3 70 6 3 4 -12 35 -34 69
-43 67 -48 88 -29 123 27 52 94 64 135 25 l24 -22 -3 266 c-3 297 -3 294 -78
346 -33 22 -114 30 -150 14z"/>
</g>
</svg>
