<?xml version="1.0" standalone="no"?>
<!DOCTYPE svg PUBLIC "-//W3C//DTD SVG 20010904//EN"
 "http://www.w3.org/TR/2001/REC-SVG-20010904/DTD/svg10.dtd">
<svg version="1.0" xmlns="http://www.w3.org/2000/svg"
 width="48.000000pt" height="48.000000pt" viewBox="0 0 48.000000 48.000000"
 preserveAspectRatio="xMidYMid meet">

<g transform="translate(0.000000,48.000000) scale(0.100000,-0.100000)"
fill="#000000" stroke="none">
<path d="M310 375 l0 -25 -140 0 -141 0 3 -132 3 -133 205 0 205 0 0 155 0
155 -67 3 c-67 3 -68 3 -68 -23z m-157 -197 c-29 -29 -40 -35 -50 -26 -11 9
-9 16 12 38 l25 26 -25 24 c-19 18 -22 26 -13 37 9 11 18 7 50 -24 l38 -37
-37 -38z m247 -38 c0 -18 -7 -20 -85 -20 -78 0 -85 2 -85 20 0 18 7 20 85 20
78 0 85 -2 85 -20z"/>
</g>
</svg>
