<?xml version="1.0" standalone="no"?>
<!DOCTYPE svg PUBLIC "-//W3C//DTD SVG 20010904//EN"
 "http://www.w3.org/TR/2001/REC-SVG-20010904/DTD/svg10.dtd">
<svg version="1.0" xmlns="http://www.w3.org/2000/svg"
 width="200.000000pt" height="200.000000pt" viewBox="0 0 96.000000 96.000000"
 preserveAspectRatio="xMidYMid meet">

<g transform="translate(0.000000,96.000000) scale(0.100000,-0.100000)"
fill="#000000" stroke="none">
<path d="M290 787 l-185 -102 0 -205 0 -204 102 -57 102 -57 131 79 c106 64
135 77 150 69 54 -29 130 18 130 80 0 39 -47 90 -82 90 -14 0 -35 11 -47 24
-13 13 -49 37 -81 52 l-59 28 132 79 c73 43 136 82 140 87 9 8 -209 140 -233
140 -8 0 -98 -46 -200 -103z m244 17 c25 -14 48 -29 51 -34 3 -5 -40 -36 -95
-69 -82 -49 -105 -59 -120 -51 -54 29 -130 -18 -130 -80 0 -67 84 -112 138
-74 20 14 27 14 70 0 64 -22 104 -55 96 -81 -3 -13 -52 -49 -131 -96 l-126
-76 -63 35 -64 36 0 166 0 166 163 91 c89 51 163 92 163 92 1 1 22 -11 48 -25z"/>
<path d="M768 704 c-16 -8 -28 -17 -28 -19 0 -2 14 -11 30 -20 l30 -16 0 -168
0 -169 -156 -91 -156 -91 -28 17 c-25 15 -33 15 -55 3 -14 -7 -25 -17 -25 -22
0 -9 94 -58 113 -58 7 0 91 46 187 103 l175 103 0 204 0 204 -30 17 c-27 16
-33 16 -57 3z"/>
</g>
</svg>
